<svg width="382" height="262" fill="none" xmlns="http://www.w3.org/2000/svg"><path fill="#E5E5E5" d="M0 0h382v262H0z"/><g id="MacBook Pro - 2"><path transform="translate(-59 -75)" fill="#fff" d="M0 0h500v500H0z"/><g id="gauge"><path id="Polygon 2" d="m60.5 92.5 131 117.5L1.7 187l6.8-20 9-19 2.5-6 3.5-6 7-10.5L44 108l10.5-11 6-4.5Z" fill="#51B555"/><path id="Polygon 3" d="m191.5 42-.5 169L59.5 92 74 81l14.5-10 20-10.5 4.8-3.2 6.7-1.8 12.5-5 21.5-5 23-3 14.5-.5Z" fill="#AECB5B"/><path id="Polygon 4" d="M323 93 192 209.5l189-22.7-6.8-19.8-9-18.8-2.4-5.9-3.5-5.9-7-10.4-13.4-17.2L323 93Z" fill="#D36B30"/><path id="Polygon 5" d="m191.3 42 1.9 168.5L324 92l-28.9-21-19.8-10.4-4.8-3.2-6.7-1.7-12.4-5-21.4-5-19.2-3.3-19.5-.5Z" fill="#E7EB44"/><g id="outlines-group" stroke="#000"><path id="gauge-outline" d="M380.5 186.4a196.2 196.2 0 0 0-378.5 0m-1 .6.2-.8a197 197 0 0 1 380 0l.3.8"/><g id="ticks" stroke-width="2"><path id="base-ticks" d="m381 186-27.5 4.5M1 186l26 4.5"/><path id="tick-low" d="m59.4 91.5 11.8 11.3"/><path id="tick-middle" d="M191 42v16.3"/><path id="tick-high" d="M324.2 92.7 312 103"/></g></g><g id="arrow" fill="#4E4E4E"><circle id="arrow-circle" cx="191.6" cy="206" r="19.3"/><path id="arrow-head" d="m191.2 59.1 15 151.9h-30l15-151.9Z"/></g></g></g></svg>
